<?xml version="1.0" encoding="UTF-8" standalone="no"?>
<!-- Created with Inkscape (http://www.inkscape.org/) -->

<svg
   xmlns:dc="http://purl.org/dc/elements/1.1/"
   xmlns:cc="http://creativecommons.org/ns#"
   xmlns:rdf="http://www.w3.org/1999/02/22-rdf-syntax-ns#"
   xmlns:svg="http://www.w3.org/2000/svg"
   xmlns="http://www.w3.org/2000/svg"
   xmlns:sodipodi="http://sodipodi.sourceforge.net/DTD/sodipodi-0.dtd"
   xmlns:inkscape="http://www.inkscape.org/namespaces/inkscape"
   id="svg3004"
   version="1.1"
   inkscape:version="0.48.3.1 r9886"
   width="2500"
   height="2500"
   xml:space="preserve"
   sodipodi:docname="logo.svg"
   inkscape:export-filename="/home/chris/code/getbro/resources/logo/logo.png"
   inkscape:export-xdpi="90"
   inkscape:export-ydpi="90"><metadata
     id="metadata3010"><rdf:RDF><cc:Work
         rdf:about=""><dc:format>image/svg+xml</dc:format><dc:type
           rdf:resource="http://purl.org/dc/dcmitype/StillImage" /><dc:title></dc:title></cc:Work></rdf:RDF></metadata><defs
     id="defs3008"><clipPath
       clipPathUnits="userSpaceOnUse"
       id="clipPath3018"><path
         d="m 921.129,0 1235.806,0 0,2000 -1235.806,0 0,-2000 z"
         id="path3020"
         inkscape:connector-curvature="0" /></clipPath><clipPath
       clipPathUnits="userSpaceOnUse"
       id="clipPath3032"><path
         d="m 0,0 3000,0 0,2000 L 0,2000 0,0 z"
         id="path3034"
         inkscape:connector-curvature="0" /></clipPath><clipPath
       clipPathUnits="userSpaceOnUse"
       id="clipPath3040"><path
         d="m -32768,32767 65535,0 0,-65535 -65535,0 0,65535 z"
         id="path3042"
         inkscape:connector-curvature="0" /></clipPath><radialGradient
       fx="0"
       fy="0"
       cx="0"
       cy="0"
       r="1"
       gradientUnits="userSpaceOnUse"
       gradientTransform="matrix(1279.9114,0,0,-1279.9114,1508.7565,1000)"
       spreadMethod="pad"
       id="radialGradient3044"><stop
         style="stop-opacity:0.70000763;stop-color:#ffffff"
         offset="0"
         id="stop3046" /><stop
         style="stop-opacity:1;stop-color:#ffffff"
         offset="0.919101"
         id="stop3048" /><stop
         style="stop-opacity:1;stop-color:#ffffff"
         offset="1"
         id="stop3050" /></radialGradient><mask
       maskUnits="userSpaceOnUse"
       x="0"
       y="0"
       width="1"
       height="1"
       id="mask3052"><g
         id="g3054"><g
           clip-path="url(#clipPath3040)"
           id="g3056"><g
             id="g3058"><g
               id="g3060"><path
                 d="m -32768,32767 65535,0 0,-65535 -65535,0 0,65535 z"
                 style="fill:url(#radialGradient3044);stroke:none"
                 id="path3062"
                 inkscape:connector-curvature="0" /></g></g></g></g></mask><radialGradient
       fx="0"
       fy="0"
       cx="0"
       cy="0"
       r="1"
       gradientUnits="userSpaceOnUse"
       gradientTransform="matrix(1279.9114,0,0,-1279.9114,1508.7565,1000)"
       spreadMethod="pad"
       id="radialGradient3068"><stop
         style="stop-opacity:1;stop-color:#322121"
         offset="0"
         id="stop3070" /><stop
         style="stop-opacity:1;stop-color:#2b2b2a"
         offset="0.919101"
         id="stop3072" /><stop
         style="stop-opacity:1;stop-color:#2b2b2a"
         offset="1"
         id="stop3074" /></radialGradient><clipPath
       clipPathUnits="userSpaceOnUse"
       id="clipPath3114"><path
         d="m 0,2000 3000,0 L 3000,0 0,0 0,2000 z"
         id="path3116"
         inkscape:connector-curvature="0" /></clipPath><clipPath
       clipPathUnits="userSpaceOnUse"
       id="clipPath3142"><path
         d="m 0,2000 3000,0 L 3000,0 0,0 0,2000 z"
         id="path3144"
         inkscape:connector-curvature="0" /></clipPath></defs><sodipodi:namedview
     pagecolor="#ffffff"
     bordercolor="#666666"
     borderopacity="1"
     objecttolerance="10"
     gridtolerance="10"
     guidetolerance="10"
     inkscape:pageopacity="0"
     inkscape:pageshadow="2"
     inkscape:window-width="1600"
     inkscape:window-height="851"
     id="namedview3006"
     showgrid="false"
     inkscape:zoom="0.25"
     inkscape:cx="1540.2186"
     inkscape:cy="1191.3654"
     inkscape:window-x="0"
     inkscape:window-y="24"
     inkscape:window-maximized="1"
     inkscape:current-layer="svg3004" /><g
     id="g3012"
     inkscape:groupmode="layer"
     inkscape:label="bro_logo_v4.0"
     transform="matrix(1.25,0,0,-1.25,0,2500)"><g
       id="g3078"
       transform="matrix(3.66025,0,0,3.66025,1011.6518,1676.9446)"><path
         d="M 0,0 127.977,83.712 0,-466.757 0,0 z"
         style="fill:#ffffff;fill-opacity:1;fill-rule:nonzero;stroke:none"
         id="path3080"
         inkscape:connector-curvature="0" /></g><g
       id="g3082"
       transform="matrix(3.66025,0,0,3.66025,1011.6518,1676.9446)"><path
         d="M 0,0 -127.977,83.712 0,-466.757 0,0 z"
         style="fill:#ffffff;fill-opacity:1;fill-rule:nonzero;stroke:none"
         id="path3084"
         inkscape:connector-curvature="0" /></g><g
       id="g3086"
       transform="matrix(3.66025,0,0,3.66025,1011.6518,1595.5065)"><path
         d="m 0,0 -76.723,-44.296 0,88.592 L 0,0 z"
         style="fill:#2b2b2a;fill-opacity:1;fill-rule:nonzero;stroke:none"
         id="path3088"
         inkscape:connector-curvature="0" /></g><g
       id="g3090"
       transform="matrix(3.66025,0,0,3.66025,1011.6518,1595.5065)"><path
         d="m 0,0 76.723,-44.296 0,88.592 L 0,0 z"
         style="fill:#2b2b2a;fill-opacity:1;fill-rule:nonzero;stroke:none"
         id="path3092"
         inkscape:connector-curvature="0" /></g><g
       id="g3094"
       transform="matrix(3.66025,0,0,3.66025,142.65691,1606.8655)"><path
         d="M 0,0 62.322,0 107.658,88.429 224.18,-412.768 0,0 z"
         style="fill:#2b2b2a;fill-opacity:1;fill-rule:nonzero;stroke:none"
         id="path3096"
         inkscape:connector-curvature="0" /></g><g
       id="g3098"
       transform="matrix(3.66025,0,0,3.66025,543.22258,1983.3507)"><path
         d="m 0,0 -50.17,-97.858 -67.672,0 L 127.977,-550.469 0,0 z m -3.557,-28.858 105.066,-451.924 -202.54,372.924 50.861,0 6.111,0 2.788,5.438 37.714,73.562 z"
         style="fill:#ffffff;fill-opacity:1;fill-rule:nonzero;stroke:none"
         id="path3100"
         inkscape:connector-curvature="0" /></g><g
       id="g3102"
       transform="matrix(3.66025,0,0,3.66025,1486.591,1930.5364)"><path
         d="m 0,0 45.336,-88.429 62.322,0 L -116.521,-501.197 0,0 z"
         style="fill:#2b2b2a;fill-opacity:1;fill-rule:nonzero;stroke:none"
         id="path3104"
         inkscape:connector-curvature="0" /></g><g
       id="g3106"
       transform="matrix(3.66025,0,0,3.66025,1480.0811,1983.3507)"><path
         d="m 0,0 -127.977,-550.469 245.819,452.611 -67.672,0 L 0,0 z m 3.557,-28.858 37.714,-73.562 2.788,-5.438 6.111,0 50.861,0 -202.54,-372.924 105.066,451.924 z"
         style="fill:#ffffff;fill-opacity:1;fill-rule:nonzero;stroke:none"
         id="path3108"
         inkscape:connector-curvature="0" /></g><g
       id="g3138"
       transform="matrix(3.66025,0,0,3.66025,-4478.7231,-3816.5238)"><g
         id="g3140"
         clip-path="url(#clipPath3142)"><g
           id="g3146"
           transform="translate(1500,1500.8452)"><path
             d="M 0,0 0,-459.833"
             style="fill:none;stroke:#2b2b2a;stroke-width:1;stroke-linecap:butt;stroke-linejoin:miter;stroke-miterlimit:10;stroke-opacity:1;stroke-dasharray:none"
             id="path3148"
             inkscape:connector-curvature="0" /></g><g
           id="g3150"
           transform="translate(1529.095,1353.3986)"><path
             d="m 0,0 c 0,5.358 -4.344,9.702 -9.702,9.702 -5.358,0 -9.701,-4.344 -9.701,-9.702 0,-5.358 4.343,-9.701 9.701,-9.701 C -4.344,-9.701 0,-5.358 0,0"
             style="fill:#2b2b2a;fill-opacity:1;fill-rule:nonzero;stroke:none"
             id="path3152"
             inkscape:connector-curvature="0" /></g><g
           id="g3154"
           transform="translate(1529.095,1275.7866)"><path
             d="m 0,0 c 0,5.358 -4.344,9.702 -9.702,9.702 -5.358,0 -9.701,-4.344 -9.701,-9.702 0,-5.358 4.343,-9.701 9.701,-9.701 C -4.344,-9.701 0,-5.358 0,0"
             style="fill:#2b2b2a;fill-opacity:1;fill-rule:nonzero;stroke:none"
             id="path3156"
             inkscape:connector-curvature="0" /></g><g
           id="g3158"
           transform="translate(1529.095,1187.2606)"><path
             d="m 0,0 c 0,5.358 -4.344,9.701 -9.702,9.701 -5.358,0 -9.701,-4.343 -9.701,-9.701 0,-5.358 4.343,-9.702 9.701,-9.702 C -4.344,-9.702 0,-5.358 0,0"
             style="fill:#2b2b2a;fill-opacity:1;fill-rule:nonzero;stroke:none"
             id="path3160"
             inkscape:connector-curvature="0" /></g></g></g></g></svg>